
<svg width="156" height="30" viewBox="0 0 156 30" fill="none" xmlns="http://www.w3.org/2000/svg">
<path id="desitegroup" d="M7.24368 24.2703C5.40573 24.2703 3.91015 23.6486 2.75692 22.4053C1.6037 21.144 1.02709 19.3961 1.02709 17.1617V16.9455C1.02709 14.7112 1.62172 12.9273 2.81098 11.5938C4.00024 10.2424 5.52286 9.5667 7.37882 9.5667C9.46904 9.5667 10.9736 10.3866 11.8926 12.0263V3.32308H15.1631V24H11.8926V21.6215C11.4962 22.3603 10.8655 22.9909 10.0006 23.5135C9.15371 24.018 8.23473 24.2703 7.24368 24.2703ZM8.05454 21.6755C9.2438 21.6755 10.1988 21.2791 10.9196 20.4863C11.6403 19.6934 12.0007 18.5312 12.0007 16.9996V16.7833C12.0007 15.2517 11.6674 14.0985 11.0007 13.3237C10.334 12.5308 9.39696 12.1344 8.18968 12.1344C6.9824 12.1344 6.04541 12.5489 5.3787 13.3777C4.712 14.1886 4.37864 15.3508 4.37864 16.8644V17.0807C4.37864 18.5762 4.712 19.7205 5.3787 20.5133C6.06343 21.2881 6.95538 21.6755 8.05454 21.6755ZM25.2667 24.2703C23.1585 24.2703 21.4377 23.6216 20.1043 22.3242C18.7708 21.0268 18.1041 19.279 18.1041 17.0807V16.8644C18.1041 14.7021 18.7618 12.9453 20.0772 11.5938C21.4106 10.2424 23.0954 9.5667 25.1316 9.5667C27.0416 9.5667 28.6273 10.1613 29.8886 11.3506C31.168 12.5398 31.8077 14.3237 31.8077 16.7023V17.6483H21.4557C21.5097 18.9997 21.8701 20.0358 22.5368 20.7566C23.2035 21.4773 24.1405 21.8377 25.3478 21.8377C27.2578 21.8377 28.339 21.1169 28.5913 19.6754H31.7536C31.5194 21.153 30.8346 22.2882 29.6994 23.081C28.5642 23.8739 27.0867 24.2703 25.2667 24.2703ZM21.5097 15.4589H28.5642C28.4021 13.1165 27.2578 11.9452 25.1316 11.9452C24.1586 11.9452 23.3477 12.2606 22.699 12.8912C22.0683 13.5039 21.6719 14.3598 21.5097 15.4589ZM39.699 24.2703C37.879 24.2703 36.4555 23.8649 35.4284 23.054C34.4014 22.2431 33.8518 21.0899 33.7797 19.5943H36.861C36.9511 20.3511 37.2123 20.9187 37.6448 21.2971C38.0773 21.6755 38.753 21.8647 39.6719 21.8647C41.3657 21.8647 42.2126 21.2611 42.2126 20.0538C42.2126 19.4952 41.9784 19.0808 41.5099 18.8105C41.0594 18.5222 40.2846 18.2879 39.1854 18.1078C37.2934 17.8014 35.969 17.3419 35.2122 16.7293C34.4554 16.0986 34.077 15.1256 34.077 13.8102C34.077 12.4768 34.5996 11.4407 35.6447 10.7019C36.6898 9.9451 37.9331 9.5667 39.3746 9.5667C42.7622 9.5667 44.6092 10.9902 44.9155 13.8372H41.8883C41.7441 13.1885 41.4739 12.711 41.0774 12.4047C40.699 12.0984 40.1314 11.9452 39.3746 11.9452C38.6719 11.9452 38.1223 12.0984 37.7259 12.4047C37.3295 12.711 37.1313 13.1165 37.1313 13.621C37.1313 14.1255 37.3385 14.5039 37.7529 14.7562C38.1673 15.0085 38.9332 15.2337 40.0503 15.4319C41.8883 15.7202 43.2307 16.1617 44.0776 16.7563C44.9245 17.3509 45.348 18.351 45.348 19.7565C45.348 21.198 44.8524 22.3152 43.8614 23.1081C42.8884 23.8829 41.5009 24.2703 39.699 24.2703ZM48.2979 24V9.86401H51.5684V24H48.2979ZM51.271 6.99897C50.8926 7.35936 50.4332 7.53955 49.8926 7.53955C49.352 7.53955 48.8925 7.35936 48.5141 6.99897C48.1357 6.63859 47.9465 6.19712 47.9465 5.67457C47.9465 5.134 48.1357 4.68352 48.5141 4.32314C48.8925 3.96275 49.352 3.78256 49.8926 3.78256C50.4332 3.78256 50.8926 3.96275 51.271 4.32314C51.6494 4.68352 51.8386 5.134 51.8386 5.67457C51.8386 6.19712 51.6494 6.63859 51.271 6.99897ZM60.3658 24.2433C58.9783 24.2433 57.9152 23.8829 57.1764 23.1621C56.4556 22.4413 56.0952 21.4052 56.0952 20.0538V12.3236H54.2032V9.86401H56.0952V6.75572H59.3657V9.86401H62.474V12.3236H59.3657V19.7565C59.3657 20.9638 59.9063 21.5674 60.9874 21.5674C61.6181 21.5674 62.1497 21.4773 62.5821 21.2971V23.8919C61.9514 24.1261 61.2127 24.2433 60.3658 24.2433ZM71.7486 24.2703C69.6404 24.2703 67.9196 23.6216 66.5862 22.3242C65.2527 21.0268 64.586 19.279 64.586 17.0807V16.8644C64.586 14.7021 65.2437 12.9453 66.5591 11.5938C67.8925 10.2424 69.5773 9.5667 71.6135 9.5667C73.5235 9.5667 75.1092 10.1613 76.3705 11.3506C77.6499 12.5398 78.2896 14.3237 78.2896 16.7023V17.6483H67.9376C67.9916 18.9997 68.352 20.0358 69.0187 20.7566C69.6854 21.4773 70.6224 21.8377 71.8297 21.8377C73.7397 21.8377 74.8209 21.1169 75.0732 19.6754H78.2355C78.0013 21.153 77.3165 22.2882 76.1813 23.081C75.0461 23.8739 73.5686 24.2703 71.7486 24.2703ZM67.9916 15.4589H75.0461C74.884 13.1165 73.7397 11.9452 71.6135 11.9452C70.6405 11.9452 69.8296 12.2606 69.1809 12.8912C68.5502 13.5039 68.1538 14.3598 67.9916 15.4589ZM87.1841 29.1625C85.22 29.1625 83.7064 28.757 82.6433 27.9462C81.5982 27.1533 80.9765 26.1082 80.7783 24.8109H83.0758C83.4001 26.4506 84.7605 27.2705 87.1571 27.2705C88.5986 27.2705 89.7158 26.9101 90.5086 26.1893C91.3015 25.4866 91.6979 24.3964 91.6979 22.9189V20.8647C91.2654 21.6035 90.6077 22.2341 89.7248 22.7567C88.8419 23.2792 87.9049 23.5405 86.9138 23.5405C85.0579 23.5405 83.5172 22.9098 82.2919 21.6485C81.0846 20.3872 80.481 18.7835 80.481 16.8374V16.6482C80.481 14.6841 81.1027 13.0264 82.346 11.6749C83.5893 10.3055 85.166 9.62075 87.076 9.62075C89.1662 9.62075 90.7068 10.4586 91.6979 12.1344V9.86401H93.9413V23.054C93.9233 25.0541 93.3016 26.5677 92.0763 27.5948C90.851 28.6399 89.2203 29.1625 87.1841 29.1625ZM87.1571 21.6755C88.5085 21.6755 89.6167 21.2341 90.4816 20.3511C91.3465 19.4502 91.779 18.2249 91.779 16.6752V16.486C91.779 14.9184 91.3735 13.6931 90.5627 12.8101C89.7698 11.9272 88.6797 11.4857 87.2922 11.4857C85.9048 11.4857 84.8056 11.9542 83.9947 12.8912C83.2019 13.8102 82.8055 15.0265 82.8055 16.5401V16.7563C82.8055 18.2519 83.2199 19.4502 84.0488 20.3511C84.8957 21.2341 85.9318 21.6755 87.1571 21.6755ZM98.4808 24V9.86401H100.724V12.4047C101.211 11.5218 101.805 10.8461 102.508 10.3776C103.229 9.90906 104.184 9.65679 105.373 9.62075V11.729C103.823 11.8011 102.661 12.1614 101.886 12.8101C101.112 13.4588 100.724 14.603 100.724 16.2428V24H98.4808ZM114.139 22.3783C115.545 22.3783 116.662 21.8918 117.491 20.9187C118.338 19.9457 118.761 18.6573 118.761 17.0536V16.8644C118.761 15.2247 118.338 13.9183 117.491 12.9453C116.662 11.9722 115.545 11.4857 114.139 11.4857C112.716 11.4857 111.59 11.9722 110.761 12.9453C109.932 13.9183 109.517 15.2157 109.517 16.8374V17.0536C109.517 18.6754 109.932 19.9727 110.761 20.9458C111.59 21.9008 112.716 22.3783 114.139 22.3783ZM114.112 24.2433C112.112 24.2433 110.454 23.5675 109.139 22.2161C107.842 20.8467 107.193 19.1258 107.193 17.0536V16.8374C107.193 14.7292 107.842 12.9993 109.139 11.6479C110.454 10.2965 112.121 9.62075 114.139 9.62075C116.157 9.62075 117.815 10.2965 119.113 11.6479C120.428 12.9813 121.086 14.7021 121.086 16.8104V17.0266C121.086 19.1529 120.428 20.8917 119.113 22.2431C117.797 23.5766 116.13 24.2433 114.112 24.2433ZM129.343 24.2433C127.848 24.2433 126.649 23.8018 125.749 22.9189C124.866 22.0359 124.424 20.6665 124.424 18.8105V9.86401H126.667V18.7024C126.667 19.9457 126.929 20.8557 127.451 21.4323C127.992 22.0089 128.821 22.2972 129.938 22.2972C131.001 22.2972 131.911 21.9548 132.668 21.2701C133.443 20.5854 133.83 19.6394 133.83 18.4321V9.86401H136.073V24H133.83V21.7566C133.488 22.4774 132.92 23.072 132.127 23.5405C131.352 24.009 130.424 24.2433 129.343 24.2433ZM140.608 28.9192V9.86401H142.851V12.2425C143.283 11.5218 143.941 10.9091 144.824 10.4046C145.707 9.88203 146.644 9.62075 147.635 9.62075C149.527 9.62075 151.068 10.2694 152.257 11.5668C153.464 12.8462 154.068 14.567 154.068 16.7293V16.9455C154.068 19.1258 153.473 20.8917 152.284 22.2431C151.113 23.5766 149.563 24.2433 147.635 24.2433C146.536 24.2433 145.572 24.009 144.743 23.5405C143.914 23.054 143.283 22.4323 142.851 21.6755V28.9192H140.608ZM147.419 22.3783C148.824 22.3783 149.896 21.9188 150.635 20.9998C151.374 20.0808 151.743 18.7654 151.743 17.0536V16.8374C151.743 15.1256 151.329 13.8102 150.5 12.8912C149.689 11.9542 148.653 11.4857 147.392 11.4857C146.022 11.4857 144.905 11.9452 144.04 12.8642C143.193 13.7651 142.77 15.0896 142.77 16.8374V17.0536C142.77 18.8015 143.184 20.1259 144.013 21.0268C144.86 21.9278 145.995 22.3783 147.419 22.3783Z" fill="black"/>
</svg>