<svg width="16" height="16" viewBox="0 0 16 16" fill="none" xmlns="http://www.w3.org/2000/svg">
<path fill-rule="evenodd" clip-rule="evenodd" d="M8 0C12.4179 0 16 3.58206 16 8L15.9999 7.99994C15.9999 11.9936 13.0751 15.3032 9.25031 15.9032V10.313H11.1145L11.1144 10.3129L11.4688 7.99988H9.25031V6.49914C9.25031 5.93976 9.49247 5.39183 10.237 5.27296C10.3339 5.25751 10.4393 5.24932 10.5538 5.24932H11.5629V5.24926H11.5634V3.28045C11.5634 3.28045 10.6476 3.12408 9.77233 3.12408C8.7784 3.12408 7.97159 3.45172 7.44246 4.07347C6.9987 4.59474 6.75012 5.32264 6.75012 6.23708V7.99994H4.71875V8H4.71832V10.3131H6.75012V15.9033C2.92507 15.3025 0 11.9927 0 8C0 3.58206 3.58206 0 8 0Z" fill="#FE5616"/>
</svg>
